<?xml version="1.0" standalone="no"?><!DOCTYPE svg PUBLIC "-//W3C//DTD SVG 1.1//EN" "http://www.w3.org/Graphics/SVG/1.1/DTD/svg11.dtd"><svg t="1517066221026" class="icon" style="" viewBox="0 0 1024 1024" version="1.1" xmlns="http://www.w3.org/2000/svg" p-id="7826" xmlns:xlink="http://www.w3.org/1999/xlink" width="200" height="200"><defs><style type="text/css"></style></defs><path d="M107.227652 896.082632c-16.185634 0-29.354562-13.045107-29.354562-29.082362 0-76.471672 24.448832-149.238976 70.704318-210.435757 22.426779-29.493731 49.080835-55.17053 79.222319-76.320223 25.260314-17.756409 52.696176-32.129768 81.546248-42.727127l1.629103-0.599657-1.455141-0.947582c-26.776853-17.436114-49.982368-40.953737-67.106374-68.010977-22.281469-35.33374-34.059724-76.030627-34.059724-117.690446 0-122.605386 100.650351-222.353181 224.367047-222.353181 123.656321 0 224.25653 99.698676 224.25653 222.245733 0 38.197974-9.991562 75.946716-28.894074 109.163235-17.313318 30.420847-42.031279 56.736189-71.483054 76.105329l-1.437745 0.945535 1.612731 0.597611c28.306696 10.497075 55.293327 24.691355 80.21288 42.187845 30.346145 21.291932 57.034994 47.006594 79.32772 76.426647 46.326095 61.142545 70.813812 133.910872 70.813812 210.440873 0 16.035208-13.165858 29.080316-29.350468 29.080316-16.186657 0-29.355585-13.045107-29.355585-29.080316 0-78.125335-30.68793-151.681608-86.410022-207.121268-54.06536-53.7993-125.516692-84.320431-201.191208-85.945441l-0.100284-0.002047-1.684362 0.356111c-2.25332 0.461511-4.466732 0.695848-6.577812 0.695848-0.719384 0-1.440815-0.025583-2.14485-0.079818-78.091566 0.151449-151.658072 30.677697-207.214389 85.951581-55.794747 55.510268-86.522586 129.066541-86.522586 207.119221C136.579143 883.037525 123.412262 896.082632 107.227652 896.082632zM432.722934 186.082092c-91.344404 0-165.658947 73.65451-165.658947 164.18641 0 90.533946 74.314543 164.188456 165.658947 164.188456 91.345428 0 165.659971-73.655534 165.659971-164.188456C598.382904 259.736603 524.068362 186.082092 432.722934 186.082092zM931.101705 830.391491c-16.187681 0-29.357632-13.045107-29.357632-29.082362 0-134.480854-103.458303-243.886613-230.624565-243.886613-16.183588 0-29.350468-13.045107-29.350468-29.080316 0-16.09763 13.165858-29.193903 29.350468-29.193903 69.839625 0 126.658701-60.45386 126.658701-134.76124 0-74.250074-56.819077-134.656863-126.658701-134.656863-16.183588 0-29.350468-13.046131-29.350468-29.081339 0-16.038278 13.165858-29.086455 29.350468-29.086455 102.210893 0 185.365778 86.501096 185.365778 192.824657 0 34.020838-8.714476 67.528999-25.199938 96.900957-12.888542 22.949688-30.543643 43.314505-51.058886 58.895365l-1.192152 0.907673 1.37737 0.587378c49.564859 21.141506 92.589768 56.369845 124.423801 101.877295 36.276205 51.850925 55.509245 113.314789 55.617715 177.74931C960.452173 817.34229 947.286316 830.391491 931.101705 830.391491z" p-id="7827" fill="#e6e6e6"></path></svg>