<?xml version="1.0" standalone="no"?><!DOCTYPE svg PUBLIC "-//W3C//DTD SVG 1.1//EN" "http://www.w3.org/Graphics/SVG/1.1/DTD/svg11.dtd"><svg t="1517114102132" class="icon" style="" viewBox="0 0 1024 1024" version="1.1" xmlns="http://www.w3.org/2000/svg" p-id="3368" xmlns:xlink="http://www.w3.org/1999/xlink" width="32" height="32"><defs><style type="text/css"></style></defs><path d="M709.12 64C631.488 64 562.048 108.928 512 191.168 462.72 108.928 392.512 64 314.88 64 194.688 64.832 64 180.992 64 368.32s150.848 322.944 260.608 421.312c43.328 38.976 74.688 66.112 99.328 87.296 41.792 36.48 62.72 54.272 85.888 80.512L512 960l2.24-2.56c29.888-33.92 56.768-57.664 128.448-119.552 16.448-14.4 35.072-30.528 56.768-49.152C825.6 680.256 960 548.864 960 366.592 960 180.16 830.08 64 709.12 64L709.12 64zM669.568 745.536l-56 48.32c-47.808 41.536-76.16 66.112-99.328 88.128L512 883.712l-2.24-1.664c-14.912-13.568-32.128-28.8-53.76-47.488L453.76 832.832c-24.64-21.184-56-48.32-98.56-87.296-107.52-96.64-241.92-217.024-241.92-377.216 0-152.576 104.512-247.552 201.6-247.552 61.952 0 117.952 38.144 158.272 106.816L512 292.864l38.848-65.28c51.52-88.128 114.24-106.816 158.272-106.816 97.088 0 201.6 94.08 201.6 245.824C910.72 522.624 786.048 643.84 669.568 745.536L669.568 745.536z" p-id="3369" fill="#e6e6e6"></path></svg>