<?xml version="1.0" standalone="no"?><!DOCTYPE svg PUBLIC "-//W3C//DTD SVG 1.1//EN" "http://www.w3.org/Graphics/SVG/1.1/DTD/svg11.dtd"><svg t="1517068881921" class="icon" style="" viewBox="0 0 1024 1024" version="1.1" xmlns="http://www.w3.org/2000/svg" p-id="18544" xmlns:xlink="http://www.w3.org/1999/xlink" width="200" height="200"><defs><style type="text/css"></style></defs><path d="M650.092 579.983v0c89.228-48.863 150.838-144.465 150.838-254.938 0-159.335-129.593-291.054-288.929-291.054s-288.929 129.593-288.929 288.929c0 110.473 61.61 206.075 150.838 254.938v0c-157.212 57.361-267.685 208.199-267.685 382.407 0 16.996 12.747 29.743 29.743 29.743 16.996 0 29.743-12.747 29.743-29.743-2.124-176.332 129.593-322.921 301.676-344.166l-59.485 169.959c-4.249 10.622-2.124 23.369 6.373 33.993l89.228 97.726c4.249 6.373 12.747 6.373 19.12 0l89.228-97.726c8.498-8.498 10.622-21.245 6.373-33.993l-59.485-169.959c169.959 21.245 303.801 167.834 303.801 344.166 0 16.996 12.747 29.743 29.743 29.743 16.996 0 29.743-12.747 29.743-29.743-4.249-174.207-116.846-325.046-271.934-380.282zM280.432 322.921c0-127.469 104.1-231.568 231.568-231.568s231.568 104.1 231.568 231.568c0 127.469-104.1 231.568-231.568 231.568s-231.568-101.975-231.568-231.568z" p-id="18545" fill="#e6e6e6"></path></svg>