<?xml version="1.0" standalone="no"?>
<!DOCTYPE svg PUBLIC "-//W3C//DTD SVG 1.1//EN" "http://www.w3.org/Graphics/SVG/1.1/DTD/svg11.dtd">
<svg t="1517068733200" class="icon" style="" viewBox="0 0 1024 1024" version="1.1" xmlns="http://www.w3.org/2000/svg" p-id="12782" xmlns:xlink="http://www.w3.org/1999/xlink" width="200" height="200"><defs>
<style type="text/css"></style></defs>
<path d="M1024 512c0-282.763636-229.236364-512-512-512C229.236364 0 0 229.236364 0 512c0 282.763636 229.236364 512 512 512C794.763636 1024 1024 794.763636 1024 512zM46.545455 512C46.545455 254.929455 254.929455 46.545455 512 46.545455c257.070545 0 465.454545 208.384 465.454545 465.454545s-208.384 465.454545-465.454545 465.454545C254.929455 977.454545 46.545455 769.070545 46.545455 512z" p-id="12783" fill="#e6e6e6" />
<path d="M536.110545 696.645818c0.977455-3.863273 1.442909-10.984727 1.442909-21.410909L537.553455 656.756364l-0.372364-321.024c17.408 11.589818 40.866909 22.248727 70.376727 31.930182 28.997818 9.914182 43.52 22.714182 43.52 38.446545 0 10.146909-5.678545 22.388364-17.035636 36.631273l9.076364 14.894545c29.975273-29.277091 44.962909-54.784 44.962909-76.520727 0-33.373091-31.790545-59.624727-95.418182-78.708364-18.618182-5.818182-31.278545-11.589818-37.888-17.408-6.656-5.818182-12.753455-16.197818-18.338909-31.185455l-22.109091 1.070545 0 406.993455c-24.901818-21.504-50.641455-32.302545-77.265455-32.302545-29.509818 0-54.830545 5.818182-76.008727 17.408-21.178182 11.589818-31.744 25.646545-31.744 42.077091 0 39.191273 33.745455 58.786909 101.189818 58.786909 29.742545 0 53.853091-4.887273 72.378182-14.708364C521.448727 723.316364 532.48 711.168 536.110545 696.645818z" p-id="12784" fill="#e6e6e6" />
</svg>