<?xml version="1.0" standalone="no"?><!DOCTYPE svg PUBLIC "-//W3C//DTD SVG 1.1//EN" "http://www.w3.org/Graphics/SVG/1.1/DTD/svg11.dtd"><svg t="1517115082596" class="icon" style="" viewBox="0 0 1024 1024" version="1.1" xmlns="http://www.w3.org/2000/svg" p-id="10829" xmlns:xlink="http://www.w3.org/1999/xlink" width="32" height="32"><defs><style type="text/css"></style></defs><path d="M905.757257 52.414171h-775.314286c-16.149943 0-34.143086 18.856229-34.143085 35.0208v380.342858a29.257143 29.257143 0 0 0 58.514285 0V110.928457h716.8v716.8H510.785829a29.257143 29.257143 0 0 0 0 58.514286h394.971428c16.149943 0 24.3712-7.343543 24.3712-23.493486v-775.314286c0-16.164571-8.221257-35.0208-24.3712-35.0208z" fill="#e6e6e6" p-id="10830"></path><path d="M437.642971 257.214171h321.828572a14.628571 14.628571 0 1 0 0-29.257142h-321.828572a14.628571 14.628571 0 1 0 0 29.257142zM262.100114 257.214171h58.514286a14.628571 14.628571 0 1 0 0-29.257142h-58.514286a14.628571 14.628571 0 1 0 0 29.257142zM437.642971 403.499886h321.828572a14.628571 14.628571 0 1 0 0-29.257143h-321.828572a14.628571 14.628571 0 1 0 0 29.257143zM262.100114 403.499886h58.514286a14.628571 14.628571 0 1 0 0-29.257143h-58.514286a14.628571 14.628571 0 1 0 0 29.257143zM437.642971 549.7856h321.828572a14.628571 14.628571 0 1 0 0-29.257143h-321.828572a14.628571 14.628571 0 1 0 0 29.257143zM262.100114 549.7856h58.514286a14.628571 14.628571 0 1 0 0-29.257143h-58.514286a14.628571 14.628571 0 1 0 0 29.257143zM759.471543 666.814171h-248.685714a14.628571 14.628571 0 1 0 0 29.257143h248.685714a14.628571 14.628571 0 1 0 0-29.257143zM451.510857 739.957029L143.550171 562.5856c-9.055086-5.2224-21.109029-5.2224-30.178742 0s-17.071543 14.891886-17.071543 25.336686v354.742857c0 10.459429 8.016457 20.114286 17.071543 25.336686 4.534857 2.618514 12.317257 3.920457 17.378742 3.920457s9.859657-1.301943 14.379886-3.920457l307.024457-177.371429c9.055086-5.2224 14.394514-14.891886 14.394515-25.336686s-5.983086-20.114286-15.038172-25.336685zM154.814171 892.0064V638.595657l219.428572 126.698057-219.428572 126.712686z" fill="#e6e6e6" p-id="10831"></path><path d="M306.234514 777.464686a14.657829 14.657829 0 0 0 20.289829-4.052115 14.628571 14.628571 0 0 0-4.052114-20.289828l-87.771429-58.514286a14.628571 14.628571 0 1 0-16.237714 24.341943l87.771428 58.514286z" fill="#e6e6e6" p-id="10832"></path></svg>