<?xml version="1.0" standalone="no"?><!DOCTYPE svg PUBLIC "-//W3C//DTD SVG 1.1//EN" "http://www.w3.org/Graphics/SVG/1.1/DTD/svg11.dtd"><svg t="1517757102942" class="icon" style="" viewBox="0 0 1024 1024" version="1.1" xmlns="http://www.w3.org/2000/svg" p-id="1934" xmlns:xlink="http://www.w3.org/1999/xlink" width="32" height="32"><defs><style type="text/css"></style></defs><path d="M925.6 443.1h-41.4c-19 0-39.1-14.8-44.7-32.9l-23.7-57.7c-9-16.7-5.3-41.3 8-54.7l29.4-29.3c13.4-13.5 13.4-35.4 0-48.8L804.4 171c-13.4-13.4-35.3-13.4-48.8 0l-29.3 29.3c-13.4 13.4-38 17.1-54.8 8.1l-57.6-23.7C595.8 179.1 581 159 581 140V98.5c0-18.9-15.6-34.5-34.4-34.5h-68.9c-19 0-34.5 15.6-34.5 34.5v41.4c0 19-14.8 39.1-32.9 44.7l-57.7 23.7c-16.7 9-41.3 5.3-54.7-8.1l-29.4-29.3c-13.4-13.4-35.3-13.4-48.7 0l-48.7 48.7c-13.4 13.4-13.4 35.4 0 48.8l29.3 29.3c13.5 13.4 17.1 38 8.1 54.7l-23.7 57.7c-5.6 18.1-25.7 32.9-44.7 32.9H98.8c-19 0-34.5 15.5-34.5 34.5v68.9c0 19 15.5 34.5 34.5 34.5h41.3c19 0 39 14.9 44.6 32.9l23.8 57.7c8.9 16.7 5.3 41.4-8.1 54.8l-29.3 29.3c-13.3 13.4-13.3 35.3 0 48.8l48.8 48.8c13.4 13.4 35.3 13.4 48.7 0l29.4-29.3c13.3-13.4 38-17 54.6-8l57.8 23.7c18.1 5.6 32.9 25.7 32.9 44.7v41.2c0 18.9 15.5 34.5 34.5 34.5h68.9c18.9 0 34.4-15.5 34.4-34.5v-41.2c0-19 14.9-39.1 32.9-44.7l57.7-23.7c16.7-9 41.4-5.4 54.8 8l29.2 29.3c13.4 13.4 35.4 13.4 48.8 0l48.8-48.8c13.4-13.4 13.4-35.4 0-48.8l-29.4-29.3c-13.3-13.3-17-38-8-54.8l23.7-57.7c5.7-18.1 25.8-32.9 44.7-32.9h41.4c18.9 0 34.4-15.5 34.4-34.5v-69c-0.1-18.8-15.6-34.3-34.5-34.3m-241.2 68.8c0 95.2-77.1 172.3-172.3 172.3-95.2 0-172.3-77.1-172.3-172.3 0-95.1 77.1-172.3 172.3-172.3 95.2 0.1 172.3 77.2 172.3 172.3" p-id="1935" fill="#e6e6e6"></path></svg>