<?xml version="1.0" standalone="no"?><!DOCTYPE svg PUBLIC "-//W3C//DTD SVG 1.1//EN" "http://www.w3.org/Graphics/SVG/1.1/DTD/svg11.dtd"><svg t="1517068559775" class="icon" style="" viewBox="0 0 1024 1024" version="1.1" xmlns="http://www.w3.org/2000/svg" p-id="9236" xmlns:xlink="http://www.w3.org/1999/xlink" width="200" height="200"><defs><style type="text/css"></style></defs><path d="M958.750927 650.857535c0-89.296769-53.838186-166.243255-130.753973-200.12083 0.258896-1.381463 0.400113-2.804882 0.400113-4.261047 0-78.151941-30.43415-151.625326-85.695754-206.886931s-128.736013-85.695754-206.887954-85.695754c-71.304999 0-139.999544 25.944905-193.428408 73.055876-51.131541 45.083801-84.85869 106.375749-95.503121 173.2396-42.290175 10.077519-81.09804 31.643698-112.613824 63.159482-44.927235 44.927235-69.669756 104.660688-69.669756 168.196747 0 63.537082 24.742521 123.270535 69.669756 168.196747 44.927235 44.927235 104.660688 69.669756 168.196747 69.669756 1.028423 0 2.039449-0.074701 3.032056-0.204661 0.992607 0.130983 2.003634 0.204661 3.032056 0.204661l435.108772 0c0.551562 0 1.096984-0.026606 1.639337-0.064468C863.450421 866.638019 958.750927 769.670547 958.750927 650.857535zM740.196259 823.364447 308.528865 823.364447c-1.028423 0-2.039449 0.074701-3.032056 0.204661-0.992607-0.130983-2.003634-0.204661-3.032056-0.204661-105.768929 0-191.817724-86.048795-191.817724-191.817724 0-105.767905 86.048795-191.817724 191.817724-191.817724s191.817724 86.048795 191.817724 191.817724c0 12.716626 10.307763 23.024389 23.024389 23.024389s23.024389-10.307763 23.024389-23.024389c0-63.536059-24.742521-123.269511-69.669756-168.196747-44.927235-44.927235-104.660688-69.669756-168.196747-69.669756-2.518357 0-5.027503 0.053212-7.532557 0.12996 24.351618-111.814622 124.580367-193.868429 240.882186-193.868429 132.547829 0 240.981447 105.149828 246.310825 236.412384-13.57518-2.648316-27.589358-4.052293-41.927925-4.052293-12.716626 0-23.024389 10.308787-23.024389 23.024389s10.307763 23.024389 23.024389 23.024389c95.120404 0 172.505889 77.385485 172.505889 172.505889S835.316663 823.364447 740.196259 823.364447z" p-id="9237" fill="#e6e6e6"></path><path d="M302.464753 489.494427c-78.32795 0-142.052297 63.723324-142.052297 142.051273 0 4.239558 3.436262 7.674796 7.674796 7.674796s7.674796-3.435239 7.674796-7.674796c0-69.863161 56.838519-126.70168 126.702704-126.70168 4.238534 0 7.674796-3.436262 7.674796-7.674796S306.703287 489.494427 302.464753 489.494427z" p-id="9238" fill="#e6e6e6"></path><path d="M179.561585 662.46899c-1.031493-4.112668-5.200442-6.612605-9.311063-5.577019-4.111644 1.030469-6.608511 5.199419-5.578042 9.311063 1.966795 7.845689 4.632507 15.576767 7.92039 22.976294 1.27197 2.860141 4.076852 4.559852 7.017834 4.559852 1.040702 0 2.098801-0.212848 3.111874-0.663102 3.874237-1.721201 5.617951-6.256494 3.897773-10.129708C183.688579 676.351162 181.314509 669.461241 179.561585 662.46899z" p-id="9239" fill="#e6e6e6"></path></svg>