<?xml version="1.0" standalone="no"?>
<!DOCTYPE svg PUBLIC "-//W3C//DTD SVG 1.1//EN" "http://www.w3.org/Graphics/SVG/1.1/DTD/svg11.dtd">
<svg t="1517065920878" class="icon" style="" viewBox="0 0 1024 1024" version="1.1" xmlns="http://www.w3.org/2000/svg" p-id="3998" xmlns:xlink="http://www.w3.org/1999/xlink" width="200" height="200">
<defs><style type="text/css"></style></defs>
<path d="M903.108141 64.004733c-183.118598 3.806699-376.940978 48.998971-560.01455 111.995747-0.11154-1.285273 0 559.991014 0 559.991014-33.038464-8.006348-89.207741-2.405793-128.463814 16.297175-72.740698 34.886555-112.499214 105.334024-88.587618 157.412123 23.798009 51.966559 102.141308 65.967434 174.938288 31.139208 66.584488-37.635155 98.110505-92.848665 98.110505-148.84705l0.896416-475.993948c144.275941-44.73997 302.868959-75.821873 447.12034-83.995019l0 447.990151c-42.00058-7.897877-90.718141 3.695159-130.926912 22.960944-72.851215 34.885532-112.554472 105.33607-88.586594 157.298536 23.853267 52.080146 102.140285 66.081021 174.938288 31.194466 51.801806-24.750707 100.57565-67.983347 100.57565-154.560168L903.108141 64.004733 903.108141 64.004733zM903.108141 64.004733" p-id="3999" fill="#e6e6e6" />
</svg>