<?xml version="1.0" standalone="no"?><!DOCTYPE svg PUBLIC "-//W3C//DTD SVG 1.1//EN" "http://www.w3.org/Graphics/SVG/1.1/DTD/svg11.dtd"><svg t="1517066110021" class="icon" style="" viewBox="0 0 1024 1024" version="1.1" xmlns="http://www.w3.org/2000/svg" p-id="6376" xmlns:xlink="http://www.w3.org/1999/xlink" width="200" height="200"><defs><style type="text/css"></style></defs><path d="M512 512m-128 0a64 64 0 1 0 256 0 64 64 0 1 0-256 0Z" p-id="6377" fill="#e6e6e6"></path><path d="M288 512c0-73.8 37.106-138.416 92.628-174.068l-46.282-49.024c-12.52 9.216-24.36 19.666-35.368 31.326C250.628 371.458 224 439.562 224 512c0 72.438 26.628 140.542 74.98 191.766 11.008 11.658 22.848 22.11 35.368 31.324l46.282-49.022C325.106 650.416 288 585.8 288 512z" p-id="6378" fill="#e6e6e6"></path><path d="M736 512c0 73.8-37.106 138.416-92.628 174.068l46.282 49.022c12.52-9.214 24.36-19.666 35.368-31.324C773.372 652.542 800 584.438 800 512c0-72.438-26.628-140.542-74.98-191.764-11.008-11.66-22.848-22.11-35.368-31.326l-46.282 49.024C698.894 373.584 736 438.2 736 512z" p-id="6379" fill="#e6e6e6"></path><path d="M128 512c0-111.156 50.502-209.814 128.526-271.634L210.866 192c-11.998 10-23.478 20.792-34.394 32.356-35.244 37.338-62.924 80.834-82.268 129.282C74.162 403.834 64 457.112 64 512c0 54.886 10.162 108.168 30.204 158.362 19.344 48.452 47.024 91.946 82.268 129.284 10.916 11.562 22.396 22.354 34.394 32.356l45.658-48.366C178.502 721.814 128 623.156 128 512z" p-id="6380" fill="#e6e6e6"></path><path d="M896 512c0 111.156-50.502 209.814-128.524 271.634l45.656 47.696c12-10.002 23.48-20.124 34.396-31.686 35.244-37.338 62.924-80.832 82.268-129.284C949.836 620.168 960 566.886 960 512c0-54.888-10.164-108.166-30.204-158.362-19.344-48.45-47.024-91.944-82.268-129.282C836.614 212.792 825.132 202 813.132 192l-45.658 48.366C845.498 302.186 896 400.844 896 512z" p-id="6381" fill="#e6e6e6"></path></svg>