<?xml version="1.0" standalone="no"?><!DOCTYPE svg PUBLIC "-//W3C//DTD SVG 1.1//EN" "http://www.w3.org/Graphics/SVG/1.1/DTD/svg11.dtd"><svg t="1517669977588" class="icon" style="" viewBox="0 0 1024 1024" version="1.1" xmlns="http://www.w3.org/2000/svg" p-id="2149" xmlns:xlink="http://www.w3.org/1999/xlink" width="32" height="32"><defs><style type="text/css"></style></defs><path d="M870.384343 803.187919 870.384343 534.399149c0-24.739451-20.056801-44.798299-44.798299-44.798299L646.393873 489.600851 646.393873 220.812081c0-24.743544-20.056801-44.798299-44.798299-44.798299L422.403402 176.013783c-24.741497 0-44.798299 20.053732-44.798299 44.798299l0 111.995747L198.412932 332.807828c-24.741497 0-44.798299 20.058848-44.798299 44.798299l0 425.581792L64.018036 803.187919l0 44.798299 895.962905 0 0-44.798299L870.384343 803.187919 870.384343 803.187919zM198.412932 803.187919l0-390.585743c0-24.739451-2.342348-34.996049 22.399149-34.996049l156.793022 0 0 425.581792L198.412932 803.187919 198.412932 803.187919zM422.403402 803.187919 422.403402 243.211231c0-12.370749 10.028401-22.399149 22.399149-22.399149l134.393873 0c12.370749 0 22.399149 10.028401 22.399149 22.399149l0 559.976688L422.403402 803.187919 422.403402 803.187919zM646.393873 803.187919 646.393873 534.399149l156.793022 0c24.741497 0 22.399149 20.058848 22.399149 44.800345l0 223.988424L646.393873 803.187919 646.393873 803.187919z" p-id="2150" fill="#e6e6e6"></path></svg>